<svg width="9" height="10" viewBox="0 0 9 10" fill="none" xmlns="http://www.w3.org/2000/svg">
<path d="M0.246767 5.01519C0.0214891 3.7826 0.12622 2.40638 1.15485 1.54625C1.59062 1.18186 2.18965 0.898629 2.77446 0.960194C3.59184 1.04624 4.17539 1.72243 4.4115 2.46648C4.84271 3.82537 4.26591 5.45 2.90135 6.01522C2.32506 6.25392 1.69671 6.26046 1.13743 5.96783C0.613829 5.69387 0.462195 5.26498 0.201985 4.79074" stroke="#D7385E" stroke-width="0.2" stroke-linecap="round" stroke-linejoin="round"/>
<path d="M2.30673 5.41919C2.92687 6.11607 3.53484 6.82162 4.1428 7.52898" stroke="#D7385E" stroke-width="0.2" stroke-linecap="round" stroke-linejoin="round"/>
<path d="M4.92643 6.09633C4.95393 6.45156 4.97401 6.95329 4.45622 6.84698C3.71894 6.69561 4.44456 5.98989 4.67765 5.74221C5.15906 5.23063 4.30118 5.14048 4.22982 5.40803C4.08207 5.96205 4.66342 6.68174 4.92643 7.12878" stroke="black" stroke-width="0.2" stroke-linecap="round" stroke-linejoin="round"/>
<path d="M3.2381 8.86631C3.68032 9.26836 4.14704 8.66855 4.40243 8.31767C5.47895 6.83866 6.04746 5.08008 6.94506 3.50455C6.96756 3.46506 7.06467 3.38932 7.06199 3.43472C7.04541 3.71545 6.95187 3.98625 6.90028 4.26268C6.70472 5.31033 6.49492 6.25773 6.48231 7.33011C6.47672 7.80549 6.49529 8.37165 6.82564 8.76157C7.03002 9.00281 6.94898 8.77077 7.08936 8.82142" stroke="#D7385E" stroke-width="0.2" stroke-linecap="round" stroke-linejoin="round"/>
<path d="M4.93982 7.42986C5.96981 7.34008 6.99979 7.2503 8.02978 7.16052" stroke="#D7385E" stroke-width="0.2" stroke-linecap="round" stroke-linejoin="round"/>
</svg>
